<svg width="416" height="100" viewBox="0 0 416 100" fill="none" xmlns="http://www.w3.org/2000/svg">
<path d="M113.233 98.3379C106.213 98.3379 101.04 96.7221 97.7153 93.4903C94.3901 90.2585 92.7276 85.2262 92.7276 78.3934V7.34072H107.414V77.2853C107.414 80.7017 108.153 83.0563 109.63 84.349C111.108 85.6417 113.371 86.2881 116.419 86.2881H126.949V98.3379H113.233ZM81.5052 36.7036V24.6537H126.949V36.7036H81.5052ZM157.984 98.3379C150.964 98.3379 145.791 96.7221 142.466 93.4903C139.141 90.2585 137.479 85.2262 137.479 78.3934V7.34072H152.165V77.2853C152.165 80.7017 152.904 83.0563 154.381 84.349C155.859 85.6417 158.122 86.2881 161.17 86.2881H171.7V98.3379H157.984ZM126.256 36.7036V24.6537H171.7V36.7036H126.256Z" fill="#EDEDED"/>
<path d="M205.059 100C197.854 100 191.619 98.4303 186.355 95.2909C181.182 92.1514 177.164 87.6731 174.301 81.856C171.53 76.0388 170.144 69.2521 170.144 61.4958C170.144 53.7396 171.53 46.9991 174.301 41.2742C177.164 35.4571 181.182 30.9788 186.355 27.8393C191.527 24.6076 197.623 22.9917 204.643 22.9917C211.293 22.9917 217.158 24.5614 222.238 27.7008C227.319 30.7479 231.244 35.1801 234.015 40.9972C236.878 46.8144 238.31 53.8319 238.31 62.0499V65.7895H185.385C185.754 72.9917 187.648 78.3933 191.065 81.9945C194.575 85.5956 199.286 87.3961 205.197 87.3961C209.538 87.3961 213.141 86.3804 216.004 84.349C218.867 82.3176 220.853 79.5937 221.961 76.1773L237.202 77.1468C235.262 83.9797 231.429 89.5199 225.702 93.7673C220.068 97.9224 213.187 100 205.059 100ZM185.385 54.7091H222.793C222.331 48.1533 220.437 43.3056 217.112 40.1662C213.879 37.0268 209.723 35.4571 204.643 35.4571C199.378 35.4571 195.037 37.1191 191.619 40.4432C188.294 43.675 186.216 48.4303 185.385 54.7091Z" fill="#EDEDED"/>
<path d="M271.895 100C264.968 100 259.102 98.9381 254.299 96.8144C249.589 94.6907 245.94 91.7821 243.354 88.0886C240.768 84.3029 239.29 79.9631 238.921 75.0692L254.022 74.3767C254.761 78.4395 256.516 81.6713 259.287 84.072C262.058 86.4728 266.261 87.6731 271.895 87.6731C276.513 87.6731 280.162 86.9344 282.84 85.4571C285.519 83.9797 286.858 81.6251 286.858 78.3934C286.858 76.639 286.396 75.1616 285.473 73.9612C284.641 72.6685 282.979 71.6066 280.485 70.7756C277.991 69.8523 274.296 68.9751 269.401 68.144C262.104 66.759 256.378 65.1431 252.221 63.2964C248.065 61.4497 245.109 59.0951 243.354 56.2327C241.599 53.3703 240.722 49.9077 240.722 45.8449C240.722 39.1043 243.216 33.6103 248.203 29.3629C253.283 25.1154 260.58 22.9917 270.094 22.9917C276.467 22.9917 281.824 24.0997 286.165 26.3158C290.507 28.4395 293.878 31.3481 296.279 35.0415C298.773 38.6427 300.343 42.7054 300.99 47.2299L285.888 48.0609C285.426 45.4755 284.503 43.2595 283.117 41.4127C281.824 39.4737 280.069 37.9963 277.853 36.9806C275.636 35.8726 273.003 35.3186 269.955 35.3186C265.245 35.3186 261.735 36.2419 259.426 38.0886C257.117 39.9354 255.962 42.3361 255.962 45.2909C255.962 47.5069 256.47 49.3075 257.486 50.6925C258.594 52.0776 260.349 53.2318 262.751 54.1551C265.152 54.9861 268.339 55.7248 272.311 56.3712C279.977 57.6639 285.981 59.2798 290.322 61.2188C294.663 63.0656 297.711 65.374 299.466 68.144C301.221 70.9141 302.098 74.2844 302.098 78.2548C302.098 82.8717 300.805 86.7959 298.219 90.0277C295.633 93.2595 292.077 95.7525 287.551 97.5069C283.025 99.169 277.806 100 271.895 100Z" fill="#EDEDED"/>
<path d="M332.82 98.3379C325.801 98.3379 320.628 96.7221 317.303 93.4903C313.978 90.2585 312.315 85.2262 312.315 78.3934V7.34072H327.001V77.2853C327.001 80.7017 327.74 83.0563 329.218 84.349C330.696 85.6417 332.959 86.2881 336.007 86.2881H346.537V98.3379H332.82ZM301.093 36.7036V24.6537H346.537V36.7036H301.093Z" fill="#EDEDED"/>
<path d="M371.11 100C363.444 100 357.302 98.2456 352.684 94.7368C348.158 91.2281 345.895 86.2881 345.895 79.9169C345.895 73.5457 347.788 68.6057 351.575 65.097C355.455 61.4958 361.412 58.9104 369.448 57.3407L394.802 52.4931C394.802 46.7682 393.463 42.5208 390.784 39.7507C388.106 36.8883 384.134 35.4571 378.869 35.4571C374.158 35.4571 370.464 36.5189 367.785 38.6427C365.107 40.674 363.259 43.7211 362.243 47.7839L347.142 46.8144C348.527 39.4275 351.945 33.6103 357.394 29.3629C362.936 25.1154 370.094 22.9917 378.869 22.9917C388.845 22.9917 396.419 25.6694 401.591 31.0249C406.856 36.2881 409.488 43.7211 409.488 53.3241V81.9945C409.488 83.7488 409.765 84.9954 410.32 85.7341C410.966 86.3804 411.982 86.7036 413.368 86.7036H416V98.3379C415.538 98.4303 414.799 98.5226 413.783 98.615C412.767 98.7073 411.705 98.7535 410.597 98.7535C407.456 98.7535 404.731 98.2456 402.422 97.2299C400.206 96.2142 398.543 94.5522 397.435 92.2438C396.326 89.843 395.772 86.6574 395.772 82.687L397.296 83.3795C396.557 86.6113 394.941 89.4737 392.447 91.9668C390.045 94.4598 386.951 96.4451 383.164 97.9224C379.47 99.3075 375.452 100 371.11 100ZM373.466 88.3656C377.899 88.3656 381.686 87.5346 384.827 85.8726C387.967 84.1182 390.415 81.7174 392.17 78.6704C393.925 75.6233 394.802 72.1607 394.802 68.2825V63.5734L373.189 67.7285C368.755 68.5596 365.615 69.8984 363.767 71.7452C362.012 73.4995 361.135 75.7618 361.135 78.5319C361.135 81.6713 362.197 84.1182 364.322 85.8726C366.538 87.5346 369.586 88.3656 373.466 88.3656Z" fill="#EDEDED"/>
<path d="M0 98.338L35.4683 0H54.4493L89.9176 98.338H73.9846L64.979 72.7147H24.8001L15.933 98.338H0ZM24.8001 72.7147H64.979L44.8895 14.2659L24.8001 72.7147Z" fill="#EDEDED"/>
<path d="M29.4085 68.7239L8.83442 48.2179L0 57.0231L29.4085 86.3343L90.0562 25.8874L81.2217 17.0822L29.4085 68.7239Z" fill="#38BDF8"/>
</svg>
